# xmcd CD database file
#
# Track frame offsets:
#	150
#	17777
#	31570
#	51842
#	69642
#	84235
#	99140
#	118840
#	137305
#	157050
#	178535
#
# Disc length: 2595 seconds
#
# Revision: 0
# Processed by: cddbd v1.5.1PL2 Copyright (c) Steve Scherf et al.
# Submitted via: CDex 1.51
#
DISCID=7f0a210b
DTITLE=服部克久 - Le Monde 音楽畑６
DYEAR=1989
DGENRE=Easy Listening
TTITLE0=Whale's Bolero
TTITLE1=Laurentians
TTITLE2=Maple Road
TTITLE3=Lullaby Of The Wind
TTITLE4=Closs To Me
TTITLE5=The Free Land
TTITLE6=Ola Ola
TTITLE7=Dance Of Silk Road
TTITLE8=Gypsy Rose
TTITLE9=Cosmos
TTITLE10=Consolation
EXTD=YEAR: 1989
EXTT0=
EXTT1=
EXTT2=
EXTT3=
EXTT4=
EXTT5=
EXTT6=
EXTT7=
EXTT8=
EXTT9=
EXTT10=
PLAYORDER=
